<svg width="47" height="47" viewBox="0 0 47 47" fill="none" xmlns="http://www.w3.org/2000/svg">
<path fill-rule="evenodd" clip-rule="evenodd" d="M20.9007 0.52723C22.4861 -0.175743 24.2806 -0.175743 25.866 0.52723L44.2147 8.66331C48.4143 10.5255 47.1287 17.0061 42.5596 17.0061H4.207C-0.362082 17.0061 -1.64769 10.5255 2.55191 8.66331L20.9007 0.52723ZM24.2109 4.52287C23.6824 4.28855 23.0842 4.28855 22.5558 4.52287L5.12469 12.2518C4.91471 12.345 4.98116 12.6588 5.21085 12.6588H41.5558C41.7856 12.6588 41.8519 12.345 41.6419 12.2518L24.2109 4.52287Z" fill="url(#paint0_linear_744_7961)"/>
<path d="M2.12577 44.6409C2.12577 43.4669 3.07751 42.5152 4.25153 42.5152H42.5152C43.6892 42.5152 44.6409 43.4669 44.6409 44.6409C44.6409 45.815 43.6892 46.7667 42.5152 46.7667H4.25153C3.07751 46.7667 2.12577 45.815 2.12577 44.6409Z" fill="url(#paint1_linear_744_7961)"/>
<path d="M21.2576 38.2636C21.2576 39.4377 22.2093 40.3894 23.3833 40.3894C24.5574 40.3894 25.5091 39.4377 25.5091 38.2636V21.2576C25.5091 20.0835 24.5574 19.1318 23.3833 19.1318C22.2093 19.1318 21.2576 20.0835 21.2576 21.2576V38.2636Z" fill="url(#paint2_linear_744_7961)"/>
<path d="M10.6288 40.3894C9.45479 40.3894 8.50304 39.4377 8.50304 38.2636V21.2576C8.50304 20.0835 9.45476 19.1318 10.6288 19.1318C11.8028 19.1318 12.7546 20.0835 12.7546 21.2576V38.2636C12.7546 39.4377 11.8028 40.3894 10.6288 40.3894Z" fill="url(#paint3_linear_744_7961)"/>
<path d="M34.0121 38.2636C34.0121 39.4377 34.9638 40.3894 36.1379 40.3894C37.3119 40.3894 38.2636 39.4377 38.2636 38.2636V21.2576C38.2636 20.0835 37.3119 19.1318 36.1379 19.1318C34.9638 19.1318 34.0121 20.0835 34.0121 21.2576V38.2636Z" fill="url(#paint4_linear_744_7961)"/>
<defs>
<linearGradient id="paint0_linear_744_7961" x1="23.3833" y1="0" x2="23.3833" y2="46.7667" gradientUnits="userSpaceOnUse">
<stop stop-color="#421E8B"/>
<stop offset="1" stop-color="#6C27D7"/>
</linearGradient>
<linearGradient id="paint1_linear_744_7961" x1="23.3833" y1="0" x2="23.3833" y2="46.7667" gradientUnits="userSpaceOnUse">
<stop stop-color="#421E8B"/>
<stop offset="1" stop-color="#6C27D7"/>
</linearGradient>
<linearGradient id="paint2_linear_744_7961" x1="23.3833" y1="0" x2="23.3833" y2="46.7667" gradientUnits="userSpaceOnUse">
<stop stop-color="#421E8B"/>
<stop offset="1" stop-color="#6C27D7"/>
</linearGradient>
<linearGradient id="paint3_linear_744_7961" x1="23.3833" y1="0" x2="23.3833" y2="46.7667" gradientUnits="userSpaceOnUse">
<stop stop-color="#421E8B"/>
<stop offset="1" stop-color="#6C27D7"/>
</linearGradient>
<linearGradient id="paint4_linear_744_7961" x1="23.3833" y1="0" x2="23.3833" y2="46.7667" gradientUnits="userSpaceOnUse">
<stop stop-color="#421E8B"/>
<stop offset="1" stop-color="#6C27D7"/>
</linearGradient>
</defs>
</svg>
