<svg width="59" height="59" viewBox="0 0 59 59" fill="none" xmlns="http://www.w3.org/2000/svg">
<rect x="0.339853" y="0.339853" width="58.1149" height="58.1149" rx="8.3264" stroke="#2D2D2D" stroke-width="0.679706"/>
<path d="M32.3871 19.5986H27.4744C22.8425 19.5986 20.5266 19.5986 19.0877 21.0375C18.0517 22.0735 17.7616 23.5642 17.6804 26.0466H42.1811C42.0999 23.5642 41.8098 22.0735 40.7737 21.0375C39.3349 19.5986 37.0189 19.5986 32.3871 19.5986Z" fill="#AEB0B5"/>
<path d="M27.4744 39.2497H32.3871C37.0189 39.2497 39.3349 39.2497 40.7737 37.8107C42.2127 36.3719 42.2127 34.0559 42.2127 29.4241C42.2127 28.8814 42.2127 28.3703 42.2103 27.8889H17.6511C17.6488 28.3703 17.6488 28.8814 17.6488 29.4241C17.6488 34.0559 17.6488 36.3719 19.0877 37.8107C20.5266 39.2497 22.8425 39.2497 27.4744 39.2497Z" fill="#AEB0B5"/>
<path fill-rule="evenodd" clip-rule="evenodd" d="M21.6405 34.3369C21.6405 33.8282 22.0529 33.4157 22.5616 33.4157H27.4744C27.9831 33.4157 28.3955 33.8282 28.3955 34.3369C28.3955 34.8456 27.9831 35.258 27.4744 35.258H22.5616C22.0529 35.258 21.6405 34.8456 21.6405 34.3369Z" fill="#0B0B0B"/>
<path fill-rule="evenodd" clip-rule="evenodd" d="M29.6237 34.3369C29.6237 33.8282 30.0361 33.4157 30.5448 33.4157H32.3871C32.8958 33.4157 33.3083 33.8282 33.3083 34.3369C33.3083 34.8456 32.8958 35.258 32.3871 35.258H30.5448C30.0361 35.258 29.6237 34.8456 29.6237 34.3369Z" fill="#0B0B0B"/>
</svg>
