<svg width="1244" height="305" viewBox="0 0 1244 305" fill="none" xmlns="http://www.w3.org/2000/svg">
<path d="M0.00196352 65.6653L150.367 28.6658L151.595 26.6344L163.172 0L155.844 27.2112L217.167 12.3034C240.462 8.65996 263.249 23.4201 268.714 46.0731L160.386 304.11L167.459 275.899L103.863 290.556C83.0948 294.693 61.6826 283.706 53.1759 264.654C52.4018 262.92 50.6985 258.752 50.5257 257.018C50.4569 256.34 50.6259 255.782 50.8989 255.178L128.815 78.3999L50.7771 97.5066C27.5889 101.55 7.4203 88.6019 0.571697 66.7063C0.440069 66.2849 0.750478 65.7605 0 65.912L0.00196352 65.6653ZM179.272 228.402C183.443 210.733 187.225 192.883 189.653 174.867C193.016 149.909 196.177 110.579 178.315 90.2663C169.484 80.2236 156.078 75.9528 142.862 75.8868C138.373 93.3893 134.342 111.111 131.636 129.002C126.057 165.895 121.691 223.124 172.135 228.459C173.376 228.591 178.565 229.022 179.272 228.402Z" fill="url(#paint0_linear_4301_11)"/>
<path d="M319.008 240.696V241.195L201.303 268.033L221.556 219.641L221.937 219.268L270.675 208.272C291.019 205.703 310.185 216.755 317.429 235.641L319.008 240.696Z" fill="url(#paint1_linear_4301_11)"/>
<path d="M483.251 51.5379C504.507 51.5379 514.781 58.8503 514.781 72.0822C514.781 79.3946 511.593 86.3588 504.861 93.6711L419.127 189.777H515.49V218.33H413.813C394.328 218.33 383.699 210.321 383.699 196.044C383.699 188.384 388.305 181.42 396.099 172.714L478.999 79.7428H390.431V51.5379H483.251Z" fill="#D9D9D9"/>
<path d="M664.991 51.5379V142.42C664.991 192.911 634.877 221.464 592.719 221.464C550.56 221.464 520.801 192.911 520.801 142.42V51.5379H550.914V147.992C550.914 174.804 568.982 192.562 593.073 192.562C617.164 192.562 634.878 174.804 634.878 147.992V51.5379H664.991Z" fill="#D9D9D9"/>
<path d="M680.479 292.498V148.34C680.479 128.144 681.188 110.733 689.691 93.6711C703.862 65.4663 732.558 48.404 765.86 48.404C814.75 48.404 850.886 84.2695 850.886 134.76C850.886 157.393 842.737 178.634 827.858 194.652C812.27 211.714 789.95 221.115 767.277 221.115C750.272 221.115 735.038 217.285 721.221 209.625V177.589C735.392 188.036 749.563 192.911 764.088 192.911C796.327 192.911 820.064 168.884 820.064 134.063C820.064 99.9389 796.682 76.6089 765.151 76.6089C733.621 76.6089 710.947 99.5906 710.947 135.108V292.498H680.479Z" fill="#D9D9D9"/>
<path d="M858.865 7.31543H889.333V51.5379H940.702V79.7428H889.333V151.126C889.333 177.938 902.086 189.777 931.137 189.777H940.702V218.33H930.783C882.956 218.33 858.865 197.785 858.865 156.349V7.31543Z" fill="#D9D9D9"/>
<path d="M941.209 134.76C941.209 111.43 950.066 90.189 966.717 73.475C983.013 57.1092 1003.92 48.404 1026.94 48.404C1049.97 48.404 1071.23 57.1092 1087.52 73.475C1103.82 89.8408 1112.68 111.43 1112.68 134.76C1112.68 158.09 1103.82 180.027 1087.52 196.393C1071.23 212.758 1049.97 221.464 1026.94 221.464C1003.92 221.464 983.013 212.758 966.717 196.393C950.066 179.679 941.209 158.09 941.209 134.76ZM972.739 134.412C972.739 167.143 997.184 192.562 1026.94 192.562C1056.7 192.562 1081.15 167.143 1081.15 134.412C1081.15 101.68 1056.7 76.6089 1026.94 76.6089C997.184 76.6089 972.739 101.68 972.739 134.412Z" fill="#D9D9D9"/>
<path d="M1114.43 189.777H1187.76C1203 189.777 1211.5 183.509 1211.5 173.759C1211.5 164.357 1204.06 159.482 1188.83 153.215L1159.78 141.724C1129.31 129.537 1114.78 118.046 1114.78 93.6711C1114.78 67.2073 1134.27 51.5379 1171.82 51.5379H1234.53V79.3946H1163.67C1151.98 79.3946 1145.25 84.6177 1145.25 93.6711C1145.25 100.984 1151.27 105.858 1164.03 111.082L1194.5 123.269C1225.67 135.804 1243.03 146.599 1243.03 172.714C1243.03 204.053 1219.65 218.33 1171.82 218.33H1114.43V189.777Z" fill="#D9D9D9"/>
<defs>
<linearGradient id="paint0_linear_4301_11" x1="159.504" y1="0" x2="159.504" y2="304.11" gradientUnits="userSpaceOnUse">
<stop stop-color="#421E8B"/>
<stop offset="1" stop-color="#6C27D7"/>
</linearGradient>
<linearGradient id="paint1_linear_4301_11" x1="159.504" y1="0" x2="159.504" y2="304.11" gradientUnits="userSpaceOnUse">
<stop stop-color="#421E8B"/>
<stop offset="1" stop-color="#6C27D7"/>
</linearGradient>
</defs>
</svg>
