<svg width="49" height="49" viewBox="0 0 49 49" fill="none" xmlns="http://www.w3.org/2000/svg">
<rect width="49" height="49" rx="7" fill="#2A2A2A" fill-opacity="0.48"/>
<rect x="0.5" y="0.5" width="48" height="48" rx="6.5" stroke="#2A2A2A" stroke-opacity="0.18"/>
<path fill-rule="evenodd" clip-rule="evenodd" d="M14 25L18.2342 19.9189C19.9075 17.911 22.3862 16.75 25 16.75C27.6138 16.75 30.0924 17.911 31.7658 19.9189L36 25L31.7658 30.081C30.0924 32.0891 27.6138 33.25 25 33.25C22.3862 33.25 19.9075 32.0891 18.2342 30.081L14 25ZM25 29.125C27.2782 29.125 29.125 27.2782 29.125 25C29.125 22.7218 27.2782 20.875 25 20.875C22.7218 20.875 20.875 22.7218 20.875 25C20.875 27.2782 22.7218 29.125 25 29.125Z" fill="#AEB0B5"/>
</svg>
