<svg width="100" height="84" viewBox="0 0 100 84" fill="none" xmlns="http://www.w3.org/2000/svg">
<path fill-rule="evenodd" clip-rule="evenodd" d="M52.8291 27.745C53.4786 27.0954 54.5318 27.0954 55.1813 27.745L64.5929 37.1565C65.8501 38.4139 64.9596 40.5637 63.1816 40.5637H30.7199C29.8013 40.5637 29.0566 39.8191 29.0566 38.9005C29.0566 37.9819 29.8013 37.2372 30.7199 37.2372H59.9693L52.8291 30.0971C52.1797 29.4476 52.1797 28.3945 52.8291 27.745ZM34.7353 47.2167H63.9847C64.9033 47.2167 65.6479 46.472 65.6479 45.5534C65.6479 44.6348 64.9033 43.8902 63.9847 43.8902H31.523C29.7448 43.8902 28.8543 46.0401 30.1116 47.2973L39.5232 56.7089C40.1728 57.3584 41.2259 57.3584 41.8754 56.7089C42.5249 56.0595 42.5249 55.0063 41.8754 54.3568L34.7353 47.2167Z" fill="#AEB0B5"/>
</svg>
