<svg width="100" height="84" viewBox="0 0 100 84" fill="none" xmlns="http://www.w3.org/2000/svg">
<path d="M30.0566 49.8174H48.0566V61.8174H30.0566V49.8174ZM70.0566 33.8174V45.8174H52.0566V33.8174H48.0566V45.8174H30.0566V33.8174H37.2051C36.5176 32.6377 36.0957 31.2783 36.0957 29.8174C36.0957 25.3955 39.6738 21.8174 44.0957 21.8174C46.502 21.8174 48.627 22.8955 50.0957 24.5752C51.5645 22.8955 53.6895 21.8174 56.0957 21.8174C60.5176 21.8174 64.0957 25.3955 64.0957 29.8174C64.0957 31.2783 63.6738 32.6377 62.9863 33.8174H70.0566ZM48.0957 29.8174C48.0957 27.6064 46.3066 25.8174 44.0957 25.8174C41.8848 25.8174 40.0957 27.6064 40.0957 29.8174C40.0957 32.0283 41.8848 33.8174 44.0957 33.8174C46.3066 33.8174 48.0957 32.0283 48.0957 29.8174ZM60.0957 29.8174C60.0957 27.6064 58.3066 25.8174 56.0957 25.8174C53.8848 25.8174 52.0957 27.6064 52.0957 29.8174C52.0957 32.0283 53.8848 33.8174 56.0957 33.8174C58.3066 33.8174 60.0957 32.0283 60.0957 29.8174ZM52.0566 61.8174H70.0566V49.8174H52.0566V61.8174Z" fill="#AEB0B5"/>
</svg>
