<svg width="100" height="84" viewBox="0 0 100 84" fill="none" xmlns="http://www.w3.org/2000/svg">
<path d="M70.8812 42.3956L63.8826 35.3971C63.2161 34.7305 62.2163 34.7305 61.5498 35.3971L60.3833 36.5635C59.0503 37.8965 57.0507 37.8965 55.7176 36.5635C54.3846 35.2304 54.3846 33.2308 55.7176 31.8978L56.884 30.7313C57.5506 30.0648 57.5506 29.065 56.884 28.3985L49.7189 21.2333C49.0523 20.5668 48.0525 20.5668 47.386 21.2333L42.7203 25.899C41.3872 24.5659 39.7209 23.8994 37.888 23.8994C36.055 23.8994 34.3887 24.5659 33.2222 25.899C32.0558 27.2321 31.2227 28.8984 31.2227 30.5647C31.2227 32.3977 31.8892 34.064 33.2222 35.2304L28.5565 39.8961C27.89 40.5627 27.89 41.5625 28.5565 42.229L35.5551 49.2275C36.2216 49.8941 37.2214 49.8941 37.888 49.2275L39.0544 48.0611C40.3874 46.7281 42.387 46.7281 43.7201 48.0611C45.0531 49.3942 45.0531 51.3938 43.7201 52.7268L42.5537 53.8932C41.8871 54.5598 41.8871 55.5596 42.5537 56.2261L49.5522 63.2247C49.8855 63.5579 50.3854 63.7246 50.7187 63.7246C51.0519 63.7246 51.5518 63.5579 51.8851 63.2247L56.5508 58.559C57.8838 59.892 59.5502 60.5585 61.2165 60.5585C63.0494 60.5585 64.7158 59.892 65.8822 58.559C67.0486 57.2259 67.8818 55.5596 67.8818 53.8932C67.8818 52.0603 67.2153 50.394 65.8822 49.2275L70.5479 44.5618C71.5477 44.0619 71.5477 43.0621 70.8812 42.3956Z" fill="#AEB0B5"/>
</svg>
