<svg width="40" height="40" viewBox="0 0 40 40" fill="none" xmlns="http://www.w3.org/2000/svg">
<path d="M0 28H18V40H0V28ZM40 12V24H22V12H18V24H0V12H7.14844C6.46094 10.8203 6.03906 9.46094 6.03906 8C6.03906 3.57812 9.61719 0 14.0391 0C16.4453 0 18.5703 1.07812 20.0391 2.75781C21.5078 1.07812 23.6328 0 26.0391 0C30.4609 0 34.0391 3.57812 34.0391 8C34.0391 9.46094 33.6172 10.8203 32.9297 12H40ZM18.0391 8C18.0391 5.78906 16.25 4 14.0391 4C11.8281 4 10.0391 5.78906 10.0391 8C10.0391 10.2109 11.8281 12 14.0391 12C16.25 12 18.0391 10.2109 18.0391 8ZM30.0391 8C30.0391 5.78906 28.25 4 26.0391 4C23.8281 4 22.0391 5.78906 22.0391 8C22.0391 10.2109 23.8281 12 26.0391 12C28.25 12 30.0391 10.2109 30.0391 8ZM22 40H40V28H22V40Z" fill="#AEB0B5"/>
</svg>
