<svg width="98" height="84" viewBox="0 0 98 84" fill="none" xmlns="http://www.w3.org/2000/svg">
<rect x="0.917017" y="0.917017" width="96.166" height="82.166" rx="11.9212" fill="#0B0B0B" fill-opacity="0.94"/>
<g clip-path="url(#clip0_9_1656)">
<path fill-rule="evenodd" clip-rule="evenodd" d="M48.8423 25.0796C61.9893 25.0796 72.6848 35.7778 72.6848 48.922C72.6848 50.8378 72.4632 52.7256 72.0256 54.532L71.7647 55.6035H57.852C57.1787 57.4632 55.8688 59.1014 53.9895 60.0999C52.8002 60.7254 51.465 61.0592 50.1242 61.0592C47.0583 61.0592 44.2618 59.379 42.8284 56.6722C42.6825 56.3945 42.5339 56.0327 42.3852 55.6035H25.9199L25.659 54.532C25.2215 52.7256 24.9999 50.8379 24.9999 48.922C24.9999 35.7778 35.6953 25.0796 48.8423 25.0796ZM53.019 55.6035C54.2026 54.3777 54.5393 52.4956 53.6978 50.908C52.6487 48.9333 43.6699 40.6361 43.6699 40.6361C43.6699 40.6361 45.4988 52.7256 46.545 54.7003C46.7273 55.0453 46.9658 55.3343 47.221 55.6035H47.1986C47.2491 55.6568 47.3108 55.6933 47.3613 55.741C47.4763 55.8504 47.5941 55.9513 47.7175 56.0439C47.8101 56.114 47.9083 56.1757 48.0036 56.2346C48.1327 56.3132 48.2617 56.3861 48.3991 56.4535C48.5057 56.5011 48.6123 56.546 48.7245 56.5881C48.8592 56.6357 48.9966 56.6806 49.1397 56.7143C49.2562 56.7449 49.3742 56.7702 49.4931 56.79C49.6361 56.8125 49.7764 56.8265 49.9194 56.8321C49.9896 56.8349 50.0569 56.8517 50.1242 56.8517C50.1719 56.8517 50.2196 56.8349 50.2673 56.8349C50.472 56.8293 50.674 56.8013 50.8759 56.762C50.9685 56.7423 51.0639 56.7339 51.1564 56.7087C51.4481 56.6301 51.7343 56.5292 52.0092 56.3805H52.0176V56.3777C52.4075 56.1729 52.73 55.9009 53.0189 55.6035H53.019ZM61.9977 40.0611L64.7971 37.2617L61.8238 34.2856L59.0216 37.085L61.9977 40.0611ZM46.7386 33.7414H50.9461V29.7808H46.7386V33.7414ZM35.6869 40.0611L38.663 37.085L35.8636 34.2856L32.8875 37.2617L35.6869 40.0611Z" fill="url(#paint0_linear_9_1656)"/>
</g>
<defs>
<linearGradient id="paint0_linear_9_1656" x1="48.8423" y1="25.0796" x2="48.8423" y2="61.0592" gradientUnits="userSpaceOnUse">
<stop stop-color="#6C27D7"/>
<stop offset="1" stop-color="#421E8B"/>
</linearGradient>
<clipPath id="clip0_9_1656">
<rect width="47.6849" height="47.6849" fill="white" transform="translate(25 18.0757)"/>
</clipPath>
</defs>
</svg>
