<svg width="100" height="84" viewBox="0 0 100 84" fill="none" xmlns="http://www.w3.org/2000/svg">
<g clip-path="url(#clip0_9_1673)">
<path d="M50.2309 32.7261C51.2754 32.7261 52.1222 31.8793 52.1222 30.8347C52.1222 29.7901 51.2754 28.9434 50.2309 28.9434C49.1863 28.9434 48.3395 29.7901 48.3395 30.8347C48.3395 31.8793 49.1863 32.7261 50.2309 32.7261Z" fill="#AEB0B5"/>
<path d="M32.5784 37.7695H67.8836C69.0146 37.7695 70.0069 37.0168 70.3121 35.9274C70.6172 34.8379 70.1595 33.6792 69.193 33.0922L51.5404 22.3746C51.1376 22.13 50.6843 22.0083 50.231 22.0083C49.7777 22.0083 49.3244 22.13 48.9222 22.3746L31.2696 33.0922C30.3031 33.6792 29.8448 34.8386 30.1506 35.9274C30.4551 37.0168 31.4474 37.7695 32.5784 37.7695ZM50.231 27.6823C51.9723 27.6823 53.3832 29.0933 53.3832 30.8346C53.3832 32.5759 51.9723 33.9868 50.231 33.9868C48.4897 33.9868 47.0788 32.5759 47.0788 30.8346C47.0788 29.0933 48.4897 27.6823 50.231 27.6823Z" fill="#AEB0B5"/>
<path d="M56.5354 39.0308H51.4918V54.792H56.5354V39.0308Z" fill="#AEB0B5"/>
<path d="M64.1008 39.0308H59.0572V54.792H64.1008V39.0308Z" fill="#AEB0B5"/>
<path d="M48.97 39.0308H43.9264V54.792H48.97V39.0308Z" fill="#AEB0B5"/>
<path d="M41.4046 39.0308H36.361V54.792H41.4046V39.0308Z" fill="#AEB0B5"/>
<path d="M32.5783 58.5745H67.8835C67.8835 57.1819 66.7543 56.0527 65.3617 56.0527H35.1001C33.7074 56.0527 32.5783 57.1819 32.5783 58.5745Z" fill="#AEB0B5"/>
<path d="M70.0554 59.8354H30.4064C30.1895 60.208 30.0565 60.6349 30.0565 61.0963V62.3572H70.4053V61.0963C70.4053 60.6349 70.2722 60.208 70.0554 59.8354Z" fill="#AEB0B5"/>
</g>
<defs>
<clipPath id="clip0_9_1673">
<rect width="40.3487" height="40.3487" fill="white" transform="translate(30.0566 22.0083)"/>
</clipPath>
</defs>
</svg>
