<svg width="100" height="84" viewBox="0 0 100 84" fill="none" xmlns="http://www.w3.org/2000/svg">
<path d="M65.6643 32.0956L51.7945 24.152C51.3159 23.887 50.7779 23.748 50.2309 23.748C49.684 23.748 49.146 23.887 48.6674 24.152L34.7976 32.0956C34.3132 32.3723 33.911 32.7725 33.6319 33.2554C33.3528 33.7383 33.2068 34.2866 33.2088 34.8444V49.7482C33.2451 50.267 33.4091 50.7687 33.6863 51.2087C33.9635 51.6488 34.3453 52.0133 34.7976 52.27L48.6674 60.1128C49.146 60.3777 49.684 60.5167 50.2309 60.5167C50.7779 60.5167 51.3159 60.3777 51.7945 60.1128L65.6643 52.27C66.1166 52.0133 66.4984 51.6488 66.7756 51.2087C67.0528 50.7687 67.2168 50.267 67.2531 49.7482V34.7435C67.2376 34.203 67.0834 33.6755 66.8051 33.2117C66.5269 32.748 66.134 32.3637 65.6643 32.0956ZM48.6674 56.5823L43.296 53.5561V40.1906L48.6674 43.1159V56.5823ZM50.2309 40.3924L44.9856 37.5175L57.1154 30.7843L62.386 33.76L50.2309 40.3924ZM50.2309 26.9007L53.9128 28.9686L41.7073 35.7522L38.0759 33.76L50.2309 26.9007ZM36.3611 36.4079L40.1438 38.4758V51.7657L36.3611 49.7482V36.4079ZM51.7945 56.5823V43.1159L64.1008 36.4079V49.7482L51.7945 56.5823Z" fill="#AEB0B5"/>
</svg>
