<svg width="59" height="59" viewBox="0 0 59 59" fill="none" xmlns="http://www.w3.org/2000/svg">
<rect x="0.339853" y="0.339853" width="58.1149" height="58.1149" rx="8.3264" stroke="#2D2D2D" stroke-width="0.679706"/>
<path d="M36.5554 36.2052C36.0985 36.2063 35.646 36.1168 35.2239 35.942C34.8018 35.7673 34.4185 35.5107 34.096 35.187L30.544 31.635C30.4182 31.5155 30.2514 31.4489 30.078 31.4489C29.9046 31.4489 29.7377 31.5155 29.612 31.635L26.0464 35.2005C25.7241 35.5243 25.3408 35.781 24.9187 35.9558C24.4965 36.1306 24.0439 36.22 23.5871 36.2188H22.8868L27.3861 40.718C28.79 42.1219 31.0683 42.1219 32.4722 40.718L36.9833 36.2052H36.5554ZM23.5871 23.6412C24.5174 23.6412 25.3901 24.0032 26.0464 24.6594L29.612 28.225C29.6733 28.2864 29.746 28.3351 29.8261 28.3683C29.9062 28.4015 29.9921 28.4186 30.0788 28.4186C30.1656 28.4186 30.2514 28.4015 30.3315 28.3683C30.4116 28.3351 30.4844 28.2864 30.5457 28.225L34.0977 24.673C34.4198 24.3494 34.8029 24.0928 35.2247 23.918C35.6465 23.7432 36.0988 23.6537 36.5554 23.6547H36.9833L32.4722 19.1436C31.7976 18.4695 30.8829 18.0908 29.9291 18.0908C28.9754 18.0908 28.0607 18.4695 27.3861 19.1436L22.8868 23.6429L23.5871 23.6412Z" fill="#AEB0B5"/>
<path d="M40.7163 27.386L37.9897 24.6594C37.9285 24.6845 37.8631 24.6977 37.7969 24.6983H36.5571C35.916 24.6983 35.2885 24.9588 34.8369 25.4121L31.2848 28.9641C31.1269 29.1229 30.9391 29.2489 30.7322 29.3349C30.5254 29.4209 30.3037 29.4652 30.0797 29.4652C29.8557 29.4652 29.6339 29.4209 29.4271 29.3349C29.2203 29.2489 29.0325 29.1229 28.8745 28.9641L25.3089 25.3969C24.8515 24.9413 24.2327 24.6848 23.5871 24.6831H22.0648C22.0016 24.6826 21.9392 24.6705 21.8804 24.6476L19.1436 27.386C17.7397 28.7899 17.7397 31.0683 19.1436 32.4739L21.8804 35.2106C21.9385 35.1872 22.0004 35.1746 22.0631 35.1734H23.5871C24.2298 35.1734 24.8556 34.9146 25.3089 34.4613L28.8728 30.8941C29.198 30.5845 29.6298 30.4118 30.0788 30.4118C30.5278 30.4118 30.9596 30.5845 31.2848 30.8941L34.8369 34.4461C35.2885 34.8994 35.916 35.1582 36.5571 35.1582H37.7969C37.8646 35.1582 37.9305 35.1751 37.9897 35.1988L40.7163 32.4722C42.1202 31.0683 42.1202 28.7899 40.7163 27.386Z" fill="#AEB0B5"/>
</svg>
