<svg width="28" height="28" viewBox="0 0 28 28" fill="none" xmlns="http://www.w3.org/2000/svg">
<path d="M20.8546 20.4925C20.382 20.4936 19.9138 20.401 19.4771 20.2202C19.0403 20.0394 18.6437 19.7739 18.3101 19.439L14.6351 15.764C14.505 15.6405 14.3325 15.5715 14.153 15.5715C13.9736 15.5715 13.801 15.6405 13.6709 15.764L9.98189 19.453C9.64841 19.7881 9.25184 20.0537 8.81509 20.2345C8.37835 20.4153 7.91009 20.5078 7.43739 20.5065H6.71289L11.3679 25.1615C12.8204 26.614 15.1776 26.614 16.6301 25.1615L21.2974 20.4925H20.8546ZM7.43739 7.49355C8.39989 7.49355 9.30289 7.86804 9.98189 8.54704L13.6709 12.236C13.7343 12.2995 13.8096 12.3499 13.8924 12.3843C13.9753 12.4187 14.0642 12.4363 14.1539 12.4363C14.2436 12.4363 14.3325 12.4187 14.4153 12.3843C14.4982 12.3499 14.5735 12.2995 14.6369 12.236L18.3119 8.56105C18.6452 8.22624 19.0415 7.96076 19.4779 7.77994C19.9143 7.59912 20.3822 7.50654 20.8546 7.50755H21.2974L16.6301 2.8403C15.9322 2.14279 14.9858 1.75098 13.999 1.75098C13.0123 1.75098 12.0659 2.14279 11.3679 2.8403L6.71289 7.4953L7.43739 7.49355Z" fill="#E6E6E6"/>
<path d="M25.1599 11.3679L22.3389 8.54692C22.2755 8.57292 22.2078 8.58658 22.1394 8.58717H20.8566C20.1934 8.58717 19.5441 8.85667 19.0769 9.32567L15.4018 13.0007C15.2384 13.165 15.0441 13.2953 14.8301 13.3843C14.6162 13.4733 14.3867 13.5191 14.155 13.5191C13.9232 13.5191 13.6938 13.4733 13.4798 13.3843C13.2658 13.2953 13.0715 13.165 12.9081 13.0007L9.2191 9.30992C8.74581 8.83857 8.10556 8.57316 7.4376 8.57142H5.8626C5.79731 8.5709 5.73266 8.55844 5.67185 8.53467L2.84035 11.3679C1.38785 12.8204 1.38785 15.1777 2.84035 16.6319L5.67185 19.4634C5.73199 19.4392 5.79604 19.4262 5.86085 19.4249H7.4376C8.1026 19.4249 8.7501 19.1572 9.2191 18.6882L12.9064 14.9974C13.2428 14.6771 13.6896 14.4984 14.1541 14.4984C14.6187 14.4984 15.0654 14.6771 15.4018 14.9974L19.0769 18.6724C19.5441 19.1414 20.1934 19.4092 20.8566 19.4092H22.1394C22.2094 19.4092 22.2776 19.4267 22.3389 19.4512L25.1599 16.6302C26.6124 15.1777 26.6124 12.8204 25.1599 11.3679Z" fill="#E6E6E6"/>
</svg>
