<svg width="21" height="21" viewBox="0 0 21 21" fill="none" xmlns="http://www.w3.org/2000/svg">
<path fill-rule="evenodd" clip-rule="evenodd" d="M3.33977 2.50293C2.87868 2.50293 2.50488 2.87673 2.50488 3.33782C2.50488 3.79891 2.87868 4.17271 3.33977 4.17271H4.17466C4.59265 4.17271 4.9389 4.47988 4.99999 4.88081L5.23285 8.60748C5.37032 10.8076 7.19477 12.5216 9.39916 12.5216H13.3585C15.6639 12.5216 17.5329 10.6526 17.5329 8.34716C17.5329 6.04168 15.6639 4.17271 13.3585 4.17271H6.53681C6.19298 3.1999 5.26521 2.50293 4.17466 2.50293H3.33977Z" fill="#AEB0B5"/>
<path d="M10.0191 15.8622C10.0191 16.7844 9.2715 17.5319 8.34929 17.5319C7.42709 17.5319 6.6795 16.7844 6.6795 15.8622C6.6795 14.9399 7.42709 14.1924 8.34929 14.1924C9.2715 14.1924 10.0191 14.9399 10.0191 15.8622Z" fill="#AEB0B5"/>
<path d="M13.3586 17.5319C14.2808 17.5319 15.0283 16.7844 15.0283 15.8622C15.0283 14.9399 14.2808 14.1924 13.3586 14.1924C12.4363 14.1924 11.6888 14.9399 11.6888 15.8622C11.6888 16.7844 12.4363 17.5319 13.3586 17.5319Z" fill="#AEB0B5"/>
</svg>
