<svg width="21" height="21" viewBox="0 0 21 21" fill="none" xmlns="http://www.w3.org/2000/svg">
<g clip-path="url(#clip0_712_2704)">
<path d="M10.4285 0.0205078C4.68061 0.0205078 0.02034 4.67976 0.02034 10.4286C0.02034 16.1765 4.68061 20.8368 10.4285 20.8368C16.1763 20.8368 20.8366 16.1765 20.8366 10.4286C20.8366 4.67976 16.1763 0.0205078 10.4285 0.0205078ZM19.5773 8.41915H15.6773C15.1076 6.93159 13.9249 5.74905 12.4379 5.17927V1.27987C15.9974 2.05789 18.7987 4.85868 19.5773 8.41915ZM5.43277 10.4286C5.43277 7.66908 7.6694 5.43241 10.4285 5.43241C13.1875 5.43241 15.4242 7.66908 15.4242 10.4286C15.4242 13.1872 13.1876 15.4243 10.4285 15.4243C7.6694 15.4243 5.43277 13.1872 5.43277 10.4286ZM8.41899 1.27987V5.17931C6.93199 5.74905 5.74937 6.93163 5.17968 8.41919H1.2797C2.05826 4.85868 4.85949 2.0574 8.41899 1.27987ZM1.2797 12.4381H5.17972C5.74941 13.9251 6.93203 15.1077 8.41903 15.6774V19.5774C4.85949 18.7988 2.05826 15.9976 1.2797 12.4381ZM12.4379 19.5774V15.6774C13.9249 15.1072 15.1075 13.9251 15.6773 12.4381H19.5773C18.7987 15.9976 15.9974 18.7988 12.4379 19.5774Z" fill="#AEB0B5"/>
</g>
<defs>
<clipPath id="clip0_712_2704">
<rect width="20.857" height="20.857" fill="white"/>
</clipPath>
</defs>
</svg>
