<svg width="21" height="21" viewBox="0 0 21 21" fill="none" xmlns="http://www.w3.org/2000/svg">
<g clip-path="url(#clip0_712_2735)">
<path d="M20.2927 16.4265L12.0324 2.11928C11.6673 1.48697 11.0135 1.10938 10.2833 1.10938C9.55307 1.10938 8.8992 1.48689 8.53414 2.11928L0.273917 16.4265C-0.0912242 17.0588 -0.0912242 17.8138 0.273917 18.4462C0.639057 19.0786 1.29285 19.4561 2.02305 19.4561H18.5437C19.2739 19.4561 19.9277 19.0786 20.2928 18.4463C20.6579 17.8139 20.6578 17.0589 20.2927 16.4265ZM10.2834 17.1285C9.55842 17.1285 8.96867 16.5387 8.96867 15.8138C8.96867 15.089 9.55842 14.4992 10.2834 14.4992C11.0083 14.4992 11.598 15.089 11.598 15.8138C11.598 16.5388 11.0082 17.1285 10.2834 17.1285ZM11.6069 11.5088C11.6069 12.2386 11.0131 12.8323 10.2834 12.8323C9.55358 12.8323 8.9598 12.2386 8.9598 11.5088V5.43422C8.9598 5.08797 9.24051 4.80726 9.58676 4.80726H10.98C11.3264 4.80726 11.607 5.08797 11.607 5.43422V11.5088H11.6069Z" fill="#AEB0B5"/>
</g>
<defs>
<clipPath id="clip0_712_2735">
<rect width="20.5665" height="20.5665" fill="white"/>
</clipPath>
</defs>
</svg>
