<svg width="203" height="79" viewBox="0 0 203 79" fill="none" xmlns="http://www.w3.org/2000/svg">
<path d="M0.000509887 17.052L39.0472 7.44394L39.3661 6.91641L42.3725 0L40.4696 7.06619L56.3939 3.19494C62.443 2.24882 68.3604 6.08174 69.7797 11.9643L41.6491 78.9713L43.4857 71.6454L26.971 75.4516C21.578 76.5258 16.0177 73.6728 13.8087 68.7253C13.6077 68.2749 13.1654 67.1926 13.1205 66.7422C13.1026 66.5662 13.1465 66.4215 13.2174 66.2646L33.4507 20.3589L13.1858 25.3205C7.16429 26.3705 1.9269 23.0081 0.148458 17.3223C0.114277 17.2128 0.194884 17.0767 0 17.116L0.000509887 17.052ZM46.5533 59.3114C47.6364 54.723 48.6185 50.0877 49.249 45.4095C50.1224 38.9284 50.9433 28.7151 46.3049 23.4403C44.0117 20.8324 40.5303 19.7234 37.0984 19.7063C35.9326 24.2513 34.8858 28.8533 34.1833 33.4992C32.7344 43.0795 31.6008 57.9407 44.6999 59.3261C45.0223 59.3604 46.3697 59.4723 46.5533 59.3114Z" fill="url(#paint0_linear_1_973)"/>
<path d="M82.84 62.5039V62.6335L52.2743 69.6028L57.5336 57.0364L57.6326 56.9396L70.2889 54.084C75.5716 53.4168 80.5488 56.287 82.4298 61.1911L82.84 62.5039Z" fill="url(#paint1_linear_1_973)"/>
<path d="M95.7387 19.8271C98.7296 19.8271 100.175 20.856 100.175 22.7178C100.175 23.7467 99.7266 24.7266 98.7795 25.7555L86.7162 39.2779H100.275V43.2955H85.9685C83.2269 43.2955 81.7314 42.1686 81.7314 40.1598C81.7314 39.082 82.3795 38.1021 83.4761 36.8772L95.1406 23.7957H82.6785V19.8271H95.7387Z" fill="white"/>
<path d="M121.31 19.8271V32.6147C121.31 39.7189 117.073 43.7364 111.141 43.7364C105.209 43.7364 101.022 39.7189 101.022 32.6147V19.8271H105.259V33.3986C105.259 37.1712 107.802 39.6699 111.191 39.6699C114.581 39.6699 117.073 37.1712 117.073 33.3986V19.8271H121.31Z" fill="white"/>
<path d="M123.49 53.7313V33.4476C123.49 30.6059 123.589 28.1562 124.786 25.7555C126.78 21.7869 130.817 19.3862 135.503 19.3862C142.382 19.3862 147.467 24.4326 147.467 31.5368C147.467 34.7214 146.32 37.7101 144.226 39.9639C142.033 42.3646 138.893 43.6874 135.702 43.6874C133.31 43.6874 131.166 43.1485 129.222 42.0706V37.5631C131.216 39.033 133.21 39.7189 135.254 39.7189C139.79 39.7189 143.13 36.3383 143.13 31.4388C143.13 26.6374 139.84 23.3547 135.403 23.3547C130.967 23.3547 127.777 26.5884 127.777 31.5858V53.7313H123.49Z" fill="white"/>
<path d="M148.589 13.6048H152.876V19.8271H160.104V23.7957H152.876V33.8395C152.876 37.6121 154.671 39.2779 158.758 39.2779H160.104V43.2955H158.709C151.979 43.2955 148.589 40.4048 148.589 34.5745V13.6048Z" fill="white"/>
<path d="M160.176 31.5368C160.176 28.2542 161.422 25.2655 163.765 22.9138C166.058 20.611 168.999 19.3862 172.239 19.3862C175.479 19.3862 178.47 20.611 180.763 22.9138C183.056 25.2165 184.302 28.2542 184.302 31.5368C184.302 34.8194 183.056 37.9061 180.763 40.2088C178.47 42.5116 175.479 43.7364 172.239 43.7364C168.999 43.7364 166.058 42.5116 163.765 40.2088C161.422 37.8571 160.176 34.8194 160.176 31.5368ZM164.612 31.4878C164.612 36.0933 168.052 39.6699 172.239 39.6699C176.426 39.6699 179.865 36.0933 179.865 31.4878C179.865 26.8823 176.426 23.3547 172.239 23.3547C168.052 23.3547 164.612 26.8823 164.612 31.4878Z" fill="white"/>
<path d="M184.548 39.2779H194.867C197.01 39.2779 198.207 38.396 198.207 37.0242C198.207 35.7013 197.16 35.0154 195.017 34.1335L190.929 32.5167C186.642 30.8019 184.598 29.1851 184.598 25.7555C184.598 22.0319 187.34 19.8271 192.624 19.8271H201.447V23.7467H191.477C189.832 23.7467 188.885 24.4816 188.885 25.7555C188.885 26.7843 189.733 27.4703 191.527 28.2052L195.814 29.92C200.201 31.6838 202.643 33.2026 202.643 36.8772C202.643 41.2867 199.353 43.2955 192.624 43.2955H184.548V39.2779Z" fill="white"/>
<defs>
<linearGradient id="paint0_linear_1_973" x1="101.322" y1="0" x2="101.322" y2="78.9713" gradientUnits="userSpaceOnUse">
<stop stop-color="#421E8B"/>
<stop offset="1" stop-color="#6C27D7"/>
</linearGradient>
<linearGradient id="paint1_linear_1_973" x1="101.322" y1="0" x2="101.322" y2="78.9713" gradientUnits="userSpaceOnUse">
<stop stop-color="#421E8B"/>
<stop offset="1" stop-color="#6C27D7"/>
</linearGradient>
</defs>
</svg>
