<svg width="48" height="48" viewBox="0 0 48 48" fill="none" xmlns="http://www.w3.org/2000/svg">
<g clip-path="url(#clip0_663_376)">
<path fill-rule="evenodd" clip-rule="evenodd" d="M23.8423 7.00391C36.9893 7.00391 47.6848 17.7022 47.6848 30.8463C47.6848 32.7622 47.4632 34.6499 47.0256 36.4563L46.7647 37.5278H32.852C32.1788 39.3875 30.8688 41.0257 28.9895 42.0243C27.8002 42.6497 26.465 42.9835 25.1242 42.9835C22.0583 42.9835 19.2618 41.3034 17.8284 38.5965C17.6826 38.3189 17.5339 37.957 17.3852 37.5278H0.919938L0.659062 36.4563C0.221479 34.6499 -0.000106812 32.7622 -0.000106812 30.8463C-0.000106812 17.7022 10.6953 7.00391 23.8423 7.00391ZM28.019 37.5278C29.2027 36.3021 29.5393 34.4199 28.6978 32.8323C27.6487 30.8576 18.6699 22.5604 18.6699 22.5604C18.6699 22.5604 20.4988 34.6499 21.545 36.6246C21.7274 36.9697 21.9658 37.2586 22.221 37.5278H22.1986C22.2491 37.5811 22.3108 37.6176 22.3613 37.6653C22.4763 37.7747 22.5941 37.8756 22.7175 37.9682C22.8101 38.0383 22.9083 38.1001 23.0036 38.159C23.1327 38.2375 23.2617 38.3104 23.3991 38.3778C23.5057 38.4255 23.6123 38.4703 23.7245 38.5124C23.8592 38.5601 23.9966 38.6049 24.1397 38.6386C24.2563 38.6692 24.3742 38.6945 24.4931 38.7143C24.6361 38.7368 24.7764 38.7508 24.9194 38.7564C24.9896 38.7592 25.0569 38.776 25.1242 38.776C25.1719 38.776 25.2196 38.7592 25.2673 38.7592C25.472 38.7536 25.674 38.7256 25.8759 38.6863C25.9685 38.6667 26.0639 38.6582 26.1564 38.633C26.4482 38.5545 26.7343 38.4535 27.0092 38.3048H27.0176V38.302C27.4075 38.0972 27.73 37.8252 28.019 37.5278H28.019ZM36.9977 21.9854L39.7971 19.186L36.8238 16.2099L34.0217 19.0093L36.9977 21.9854ZM21.7386 15.6657H25.9461V11.7051H21.7386V15.6657ZM10.6869 21.9854L13.663 19.0093L10.8636 16.2099L7.88754 19.186L10.6869 21.9854Z" fill="#AEB0B5"/>
</g>
<defs>
<clipPath id="clip0_663_376">
<rect width="47.6849" height="47.6849" fill="white"/>
</clipPath>
</defs>
</svg>
