<svg width="41" height="41" viewBox="0 0 41 41" fill="none" xmlns="http://www.w3.org/2000/svg">
<g clip-path="url(#clip0_617_510)">
<path d="M20.1743 10.7178C21.2189 10.7178 22.0657 9.87097 22.0657 8.82641C22.0657 7.78184 21.2189 6.93506 20.1743 6.93506C19.1297 6.93506 18.283 7.78184 18.283 8.82641C18.283 9.87097 19.1297 10.7178 20.1743 10.7178Z" fill="#AEB0B5"/>
<path d="M2.52179 15.7612H37.8269C38.958 15.7612 39.9503 15.0085 40.2554 13.9191C40.5606 12.8296 40.1029 11.6709 39.1364 11.0839L21.4838 0.366291C21.0809 0.121677 20.6277 0 20.1744 0C19.7211 0 19.2678 0.121677 18.8655 0.366291L1.21298 11.0839C0.246498 11.6709 -0.211839 12.8303 0.093929 13.9191C0.398436 15.0085 1.39076 15.7612 2.52179 15.7612ZM20.1744 5.67404C21.9157 5.67404 23.3266 7.08499 23.3266 8.82629C23.3266 10.5676 21.9157 11.9785 20.1744 11.9785C18.4331 11.9785 17.0221 10.5676 17.0221 8.82629C17.0221 7.08499 18.4331 5.67404 20.1744 5.67404Z" fill="#AEB0B5"/>
<path d="M26.4787 17.0225H21.4351V32.7837H26.4787V17.0225Z" fill="#AEB0B5"/>
<path d="M34.0441 17.0225H29.0005V32.7837H34.0441V17.0225Z" fill="#AEB0B5"/>
<path d="M18.9135 17.0225H13.8699V32.7837H18.9135V17.0225Z" fill="#AEB0B5"/>
<path d="M11.348 17.0225H6.30444V32.7837H11.348V17.0225Z" fill="#AEB0B5"/>
<path d="M2.52173 36.5662H37.8269C37.8269 35.1736 36.6977 34.0444 35.3051 34.0444H5.04352C3.65086 34.0444 2.52173 35.1736 2.52173 36.5662Z" fill="#AEB0B5"/>
<path d="M39.9988 37.8271H0.349899C0.133025 38.1997 0 38.6266 0 39.088V40.3489H40.3487V39.088C40.3487 38.6266 40.2157 38.1997 39.9988 37.8271Z" fill="#AEB0B5"/>
</g>
<defs>
<clipPath id="clip0_617_510">
<rect width="40.3487" height="40.3487" fill="white"/>
</clipPath>
</defs>
</svg>
