<svg width="48" height="36" viewBox="0 0 48 36" fill="none" xmlns="http://www.w3.org/2000/svg">
<path fill-rule="evenodd" clip-rule="evenodd" d="M23.8424 0C36.9894 0 47.6849 10.6982 47.6849 23.8424C47.6849 25.7583 47.4633 27.646 47.0257 29.4524L46.7648 30.5239H32.8521C32.1789 32.3836 30.8689 34.0218 28.9896 35.0203C27.8003 35.6458 26.4651 35.9796 25.1243 35.9796C22.0585 35.9796 19.2619 34.2995 17.8285 31.5926C17.6827 31.315 17.534 30.9531 17.3853 30.5239H0.920045L0.659169 29.4524C0.221586 27.646 0 25.7583 0 23.8424C0 10.6982 10.6954 0 23.8424 0ZM28.0191 30.5239C29.2028 29.2982 29.5394 27.416 28.6979 25.8284C27.6488 23.8537 18.67 15.5565 18.67 15.5565C18.67 15.5565 20.4989 27.646 21.5451 29.6207C21.7275 29.9657 21.9659 30.2547 22.2212 30.5239H22.1987C22.2492 30.5772 22.3109 30.6137 22.3614 30.6614C22.4764 30.7708 22.5942 30.8717 22.7176 30.9643C22.8102 31.0344 22.9084 31.0961 23.0038 31.1551C23.1328 31.2336 23.2618 31.3065 23.3992 31.3739C23.5058 31.4216 23.6124 31.4664 23.7246 31.5085C23.8593 31.5562 23.9967 31.601 24.1398 31.6347C24.2564 31.6653 24.3743 31.6906 24.4932 31.7104C24.6362 31.7329 24.7765 31.7469 24.9195 31.7525C24.9897 31.7553 25.057 31.7721 25.1243 31.7721C25.172 31.7721 25.2197 31.7553 25.2674 31.7553C25.4721 31.7497 25.6741 31.7217 25.876 31.6824C25.9686 31.6628 26.064 31.6543 26.1565 31.6291C26.4483 31.5505 26.7344 31.4496 27.0093 31.3009H27.0177V31.2981C27.4076 31.0933 27.7301 30.8213 28.0191 30.5239H28.0191ZM36.9979 14.9815L39.7972 12.1821L36.824 9.20599L34.0218 12.0054L36.9979 14.9815ZM21.7387 8.66181H25.9462V4.70118H21.7387V8.66181ZM10.687 14.9815L13.6631 12.0054L10.8637 9.20601L7.88765 12.1821L10.687 14.9815Z" fill="url(#paint0_linear_617_494)"/>
<defs>
<linearGradient id="paint0_linear_617_494" x1="23.8424" y1="0" x2="23.8424" y2="35.9796" gradientUnits="userSpaceOnUse">
<stop stop-color="#6C27D7"/>
<stop offset="1" stop-color="#421E8B"/>
</linearGradient>
</defs>
</svg>
