<svg width="37" height="30" viewBox="0 0 37 30" fill="none" xmlns="http://www.w3.org/2000/svg">
<path fill-rule="evenodd" clip-rule="evenodd" d="M23.7725 0.487146C24.422 -0.162382 25.4752 -0.162382 26.1247 0.487146L35.5363 9.89872C36.7935 11.1561 35.903 13.3059 34.125 13.3059H1.66324C0.744665 13.3059 0 12.5613 0 11.6427C0 10.7241 0.744665 9.97943 1.66324 9.97943H30.9126L23.7725 2.83933C23.123 2.18979 23.123 1.13669 23.7725 0.487146ZM5.67865 19.9589H34.928C35.8466 19.9589 36.5913 19.2142 36.5913 18.2956C36.5913 17.377 35.8466 16.6324 34.928 16.6324H2.46632C0.688182 16.6324 -0.202325 18.7823 1.05501 20.0395L10.4666 29.4511C11.1161 30.1006 12.1692 30.1006 12.8188 29.4511C13.4683 28.8016 13.4683 27.7485 12.8188 27.099L5.67865 19.9589Z" fill="#AEB0B5"/>
</svg>
