<svg width="44" height="43" viewBox="0 0 44 43" fill="none" xmlns="http://www.w3.org/2000/svg">
<path d="M42.8245 21.6622L35.826 14.6637C35.1594 13.9971 34.1596 13.9971 33.4931 14.6637L32.3267 15.8301C30.9936 17.1631 28.994 17.1631 27.661 15.8301C26.3279 14.497 26.3279 12.4974 27.661 11.1644L28.8274 9.99794C29.4939 9.33142 29.4939 8.33162 28.8274 7.66509L21.6622 0.499897C20.9957 -0.166632 19.9959 -0.166632 19.3294 0.499897L14.6637 5.1656C13.3306 3.83255 11.6643 3.16602 9.83131 3.16602C7.99836 3.16602 6.33203 3.83255 5.1656 5.1656C3.99918 6.49866 3.16602 8.16499 3.16602 9.83131C3.16602 11.6643 3.83255 13.3306 5.1656 14.497L0.499897 19.1627C-0.166632 19.8293 -0.166632 20.8291 0.499897 21.4956L7.49846 28.4941C8.16499 29.1607 9.16478 29.1607 9.83131 28.4941L10.9977 27.3277C12.3308 25.9947 14.3304 25.9947 15.6634 27.3277C16.9965 28.6608 16.9965 30.6604 15.6634 31.9934L14.497 33.1599C13.8305 33.8264 13.8305 34.8262 14.497 35.4927L21.4956 42.4913C21.8288 42.8245 22.3287 42.9912 22.662 42.9912C22.9953 42.9912 23.4952 42.8245 23.8284 42.4913L28.4941 37.8256C29.8272 39.1586 31.4935 39.8251 33.1599 39.8251C34.9928 39.8251 36.6591 39.1586 37.8256 37.8256C38.992 36.4925 39.8251 34.8262 39.8251 33.1599C39.8251 31.3269 39.1586 29.6606 37.8256 28.4941L42.4913 23.8284C43.4911 23.3285 43.4911 22.3287 42.8245 21.6622Z" fill="#AEB0B5"/>
</svg>
