<svg width="50" height="49" viewBox="0 0 50 49" fill="none" xmlns="http://www.w3.org/2000/svg">
<path d="M0.000307754 10.4714L23.5678 4.57124L23.7603 4.24729L25.5749 0L24.4263 4.33927L34.0379 1.96198C37.6889 1.38097 41.2605 3.73473 42.1172 7.34712L25.1383 48.4954L26.2468 43.9966L16.279 46.3339C13.0239 46.9936 9.66787 45.2416 8.33456 42.2034C8.21324 41.9268 7.94627 41.2622 7.91918 40.9857C7.9084 40.8776 7.93488 40.7887 7.97768 40.6924L20.1899 12.5021L7.95859 15.549C4.32417 16.1938 1.16303 14.129 0.0896054 10.6374C0.0689745 10.5702 0.117627 10.4866 0 10.5107V10.4708L0.000307754 10.4714ZM28.0983 36.4225C28.752 33.6048 29.3448 30.7583 29.7254 27.8855C30.2526 23.9055 30.748 17.6336 27.9484 14.3944C26.5643 12.793 24.463 12.1119 22.3916 12.1014C21.688 14.8924 21.0561 17.7185 20.6321 20.5715C19.7576 26.4546 19.0734 35.5807 26.9796 36.4315C27.1742 36.4525 27.9872 36.5213 28.098 36.4225H28.0983Z" fill="url(#paint0_linear_1_27)"/>
<path d="M50 38.3829V38.4625L31.5514 42.7423L34.7258 35.0254L34.7855 34.9659L42.4245 33.2124C45.613 32.8026 48.6171 34.5652 49.7524 37.5767L50 38.3829Z" fill="url(#paint1_linear_1_27)"/>
<defs>
<linearGradient id="paint0_linear_1_27" x1="25" y1="0" x2="25" y2="48.4954" gradientUnits="userSpaceOnUse">
<stop stop-color="#421E8B"/>
<stop offset="1" stop-color="#6C27D7"/>
</linearGradient>
<linearGradient id="paint1_linear_1_27" x1="25" y1="0" x2="25" y2="48.4954" gradientUnits="userSpaceOnUse">
<stop stop-color="#421E8B"/>
<stop offset="1" stop-color="#6C27D7"/>
</linearGradient>
</defs>
</svg>
