<svg width="57" height="57" viewBox="0 0 57 57" fill="none" xmlns="http://www.w3.org/2000/svg">
<rect x="0.327567" y="0.327567" width="56.0139" height="56.0139" rx="8.02538" stroke="#2D2D2D" stroke-width="0.655133"/>
<path d="M17.4177 35.9918C17.6839 36.2523 17.981 36.4931 18.3025 36.7105C19.5372 37.5456 21.1872 38.0978 23.0085 38.2593C23.3353 38.8105 23.7055 39.3346 24.1199 39.8238C24.1284 39.8354 24.1377 39.8464 24.1462 39.858C24.1339 39.858 24.1215 39.8589 24.1091 39.8589L23.7498 39.8541C21.9686 39.7976 20.3919 39.3238 19.2576 38.6168C18.0605 37.8705 17.4404 36.9272 17.4177 35.9918ZM31.3738 25.2759C32.8019 24.9919 34.2824 25.1376 35.6277 25.6949C36.973 26.2521 38.1224 27.1961 38.9314 28.4068C39.7403 29.6174 40.1725 31.0406 40.1726 32.4966C40.1726 34.4492 39.3969 36.322 38.0164 37.7027C36.6357 39.0834 34.7629 39.8589 32.8103 39.8589C31.3542 39.8589 29.9302 39.4277 28.7195 38.6187C27.5088 37.8097 26.5658 36.6593 26.0085 35.314C25.4514 33.9689 25.3056 32.4891 25.5896 31.0611C25.8737 29.6329 26.5746 28.3202 27.6042 27.2906C28.6338 26.2611 29.9457 25.56 31.3738 25.2759ZM17.4167 30.0601C17.5575 30.1979 17.706 30.3309 17.863 30.4566C18.8008 31.2072 20.0429 31.7688 21.4431 32.0855C21.4371 32.2209 21.4324 32.358 21.4324 32.4966V32.4996C21.4338 32.8664 21.4533 33.2327 21.49 33.5972C20.3799 33.3143 19.4356 32.8644 18.738 32.315C17.8756 31.6357 17.4343 30.8487 17.4167 30.0601ZM17.4177 23.7593C17.7506 24.0869 18.1312 24.3849 18.5486 24.6451C19.8492 25.4558 21.5607 25.9707 23.4373 26.0709C23.1251 26.5235 22.8453 26.9981 22.6013 27.4918C21.1243 27.2872 19.8511 26.798 18.9373 26.147C17.949 25.4431 17.4407 24.6022 17.4177 23.7593ZM24.1091 14.4254C26.0374 14.4254 27.7515 14.9149 28.9617 15.6695C30.1811 16.4301 30.8024 17.3943 30.8025 18.3463C30.8025 19.2983 30.1813 20.2627 28.9617 21.023C27.7515 21.7773 26.0374 22.2662 24.1091 22.2662C22.1808 22.2662 20.4667 21.7781 19.2566 21.024C18.037 20.2639 17.4158 19.299 17.4158 18.3463C17.4159 17.3935 18.0379 16.4289 19.2576 15.6685C20.4677 14.9142 22.1811 14.4254 24.1091 14.4254Z" fill="#AEB0B5" stroke="#AEB0B5" stroke-width="1.33861"/>
</svg>
