<svg width="33" height="33" viewBox="0 0 33 33" fill="none" xmlns="http://www.w3.org/2000/svg">
<path d="M12.137 4.04541V28.3194M21.8466 4.04541H10.5187C8.2529 4.04541 7.12012 4.04541 6.25461 4.48639C5.49341 4.87425 4.87452 5.49314 4.48666 6.25434C4.04568 7.11985 4.04568 8.25263 4.04568 10.5185V21.8463C4.04568 24.1122 4.04568 25.245 4.48666 26.1105C4.87452 26.8717 5.49341 27.4906 6.25461 27.8784C7.12012 28.3194 8.2529 28.3194 10.5187 28.3194H21.8466C24.1125 28.3194 25.2452 28.3194 26.1107 27.8784C26.872 27.4906 27.4908 26.8717 27.8787 26.1105C28.3197 25.245 28.3197 24.1122 28.3197 21.8463V10.5185C28.3197 8.25263 28.3197 7.11985 27.8787 6.25434C27.4908 5.49314 26.872 4.87425 26.1107 4.48639C25.2452 4.04541 24.1125 4.04541 21.8466 4.04541Z" stroke="#AEB0B5" stroke-width="2.69711" stroke-linecap="round" stroke-linejoin="round"/>
</svg>
