<svg width="20" height="20" viewBox="0 0 20 20" fill="none" xmlns="http://www.w3.org/2000/svg">
<path fill-rule="evenodd" clip-rule="evenodd" d="M20 20H16.25L13.546 16.672C12.4561 17.2102 11.2449 17.5 10 17.5C7.62386 17.5 5.37047 16.4446 3.84931 14.6191L0 10L3.84931 5.38083C3.93736 5.27516 4.02786 5.17209 4.1207 5.07164L0 0H3.75L20 20ZM6.69067 8.23467C6.40944 8.76077 6.25 9.36176 6.25 10C6.25 12.0711 7.92894 13.75 10 13.75C10.3647 13.75 10.7173 13.6979 11.0507 13.6009L6.69067 8.23467Z" fill="#AEB0B5"/>
<path d="M20 10L17.7847 12.6583L9.54187 2.5131C9.69396 2.50439 9.84672 2.5 9.99998 2.5C12.3761 2.5 14.6295 3.55543 16.1507 5.38083L20 10Z" fill="#AEB0B5"/>
</svg>
