<svg width="41" height="41" viewBox="0 0 41 41" fill="none" xmlns="http://www.w3.org/2000/svg">
<path d="M35.6076 10.0873L21.7378 2.14368C21.2592 1.87874 20.7212 1.73975 20.1742 1.73975C19.6273 1.73975 19.0893 1.87874 18.6107 2.14368L4.74085 10.0873C4.25653 10.364 3.85428 10.7642 3.57517 11.2471C3.29605 11.73 3.15007 12.2783 3.15212 12.8361V27.7399C3.18837 28.2587 3.35241 28.7604 3.62961 29.2004C3.90681 29.6404 4.28857 30.005 4.74085 30.2617L18.6107 38.1045C19.0893 38.3694 19.6273 38.5084 20.1742 38.5084C20.7212 38.5084 21.2592 38.3694 21.7378 38.1045L35.6076 30.2617C36.0599 30.005 36.4417 29.6404 36.7189 29.2004C36.9961 28.7604 37.1601 28.2587 37.1964 27.7399V12.7352C37.1809 12.1947 37.0267 11.6671 36.7484 11.2034C36.4702 10.7397 36.0773 10.3554 35.6076 10.0873ZM18.6107 34.574L13.2393 31.5478V18.1823L18.6107 21.1076V34.574ZM20.1742 18.3841L14.9289 15.5092L27.0587 8.77601L32.3293 11.7517L20.1742 18.3841ZM20.1742 4.89244L23.8561 6.96031L11.6506 13.7439L8.01919 11.7517L20.1742 4.89244ZM6.30437 14.3996L10.0871 16.4675V29.7574L6.30437 27.7399V14.3996ZM21.7378 34.574V21.1076L34.0441 14.3996V27.7399L21.7378 34.574Z" fill="#AEB0B5"/>
</svg>
