<svg width="58" height="58" viewBox="0 0 58 58" fill="none" xmlns="http://www.w3.org/2000/svg">
<rect x="0.333185" y="0.333185" width="56.9746" height="56.9746" rx="8.16303" stroke="#2D2D2D" stroke-width="0.66637"/>
<g clip-path="url(#clip0_2112_14)">
<path d="M27.6197 32.4907C27.2548 32.2824 26.9514 31.9812 26.7405 31.6179C26.5295 31.2545 26.4184 30.8418 26.4184 30.4216C26.4184 30.0014 26.5295 29.5887 26.7405 29.2253C26.9514 28.862 27.2548 28.5608 27.6197 28.3525V24.4173C27.6197 24.0988 27.7462 23.7934 27.9714 23.5682C28.1966 23.343 28.502 23.2165 28.8205 23.2165C29.139 23.2165 29.4445 23.343 29.6697 23.5682C29.8949 23.7934 30.0214 24.0988 30.0214 24.4173V28.3525C30.3863 28.5608 30.6896 28.862 30.9006 29.2253C31.1116 29.5887 31.2227 30.0014 31.2227 30.4216C31.2227 30.8418 31.1116 31.2545 30.9006 31.6179C30.6896 31.9812 30.3863 32.2824 30.0214 32.4907V35.225C30.0214 35.5435 29.8949 35.8489 29.6697 36.0741C29.4445 36.2994 29.139 36.4259 28.8205 36.4259C28.502 36.4259 28.1966 36.2994 27.9714 36.0741C27.7462 35.8489 27.6197 35.5435 27.6197 35.225V32.4907ZM28.8205 16.0114C28.502 16.0114 28.1966 16.1379 27.9714 16.3631C27.7462 16.5883 27.6197 16.8937 27.6197 17.2122C27.6197 17.5307 27.7462 17.8361 27.9714 18.0613C28.1966 18.2865 28.502 18.4131 28.8205 18.4131C32.0054 18.4131 35.0598 19.6782 37.3118 21.9303C39.5639 24.1823 40.8291 27.2367 40.8291 30.4216C40.8291 33.6065 39.5639 36.6609 37.3118 38.9129C35.0598 41.165 32.0054 42.4301 28.8205 42.4301C28.502 42.4301 28.1966 42.5567 27.9714 42.7819C27.7462 43.0071 27.6197 43.3125 27.6197 43.631C27.6197 43.9495 27.7462 44.2549 27.9714 44.4801C28.1966 44.7053 28.502 44.8318 28.8205 44.8318C32.6424 44.8318 36.3077 43.3136 39.0101 40.6112C41.7126 37.9087 43.2308 34.2434 43.2308 30.4216C43.2308 26.5998 41.7126 22.9345 39.0101 20.232C36.3077 17.5296 32.6424 16.0114 28.8205 16.0114ZM16.6042 24.1579C16.3667 24.1579 16.1346 24.2284 15.9371 24.3603C15.7396 24.4923 15.5857 24.6798 15.4948 24.8993C15.4039 25.1187 15.3801 25.3601 15.4265 25.5931C15.4728 25.826 15.5872 26.04 15.7551 26.2079C15.923 26.3759 16.137 26.4902 16.37 26.5366C16.6029 26.5829 16.8444 26.5591 17.0638 26.4682C17.2832 26.3774 17.4708 26.2234 17.6027 26.026C17.7347 25.8285 17.8051 25.5963 17.8051 25.3588C17.8051 25.0403 17.6786 24.7349 17.4534 24.5097C17.2282 24.2845 16.9227 24.1579 16.6042 24.1579ZM16.812 30.4216C16.812 30.1841 16.7416 29.9519 16.6096 29.7544C16.4777 29.557 16.2901 29.403 16.0707 29.3122C15.8513 29.2213 15.6098 29.1975 15.3769 29.2438C15.1439 29.2902 14.9299 29.4045 14.762 29.5725C14.5941 29.7404 14.4797 29.9544 14.4334 30.1873C14.387 30.4203 14.4108 30.6617 14.5017 30.8811C14.5926 31.1006 14.7465 31.2881 14.944 31.4201C15.1415 31.552 15.3736 31.6225 15.6111 31.6225C15.9296 31.6225 16.2351 31.4959 16.4603 31.2707C16.6855 31.0455 16.812 30.7401 16.812 30.4216ZM19.4791 19.8625C19.2416 19.8625 19.0094 19.9329 18.8119 20.0649C18.6144 20.1968 18.4605 20.3844 18.3696 20.6038C18.2787 20.8232 18.255 21.0647 18.3013 21.2976C18.3476 21.5306 18.462 21.7445 18.63 21.9125C18.7979 22.0804 19.0119 22.1948 19.2448 22.2411C19.4778 22.2875 19.7192 22.2637 19.9386 22.1728C20.1581 22.0819 20.3456 21.928 20.4776 21.7305C20.6095 21.533 20.6799 21.3009 20.6799 21.0633C20.6799 20.7449 20.5534 20.4394 20.3282 20.2142C20.103 19.989 19.7976 19.8625 19.4791 19.8625ZM23.7517 17.0213C23.5142 17.0213 23.282 17.0917 23.0846 17.2237C22.8871 17.3556 22.7332 17.5432 22.6423 17.7626C22.5514 17.982 22.5276 18.2235 22.5739 18.4564C22.6203 18.6893 22.7346 18.9033 22.9026 19.0713C23.0705 19.2392 23.2845 19.3536 23.5174 19.3999C23.7504 19.4462 23.9918 19.4225 24.2113 19.3316C24.4307 19.2407 24.6182 19.0868 24.7502 18.8893C24.8821 18.6918 24.9526 18.4596 24.9526 18.2221C24.9526 17.9036 24.8261 17.5982 24.6009 17.373C24.3756 17.1478 24.0702 17.0213 23.7517 17.0213ZM16.6042 34.2835C16.3667 34.2835 16.1346 34.354 15.9371 34.4859C15.7396 34.6179 15.5857 34.8054 15.4948 35.0249C15.4039 35.2443 15.3801 35.4857 15.4265 35.7187C15.4728 35.9516 15.5872 36.1656 15.7551 36.3335C15.923 36.5015 16.137 36.6158 16.37 36.6622C16.6029 36.7085 16.8444 36.6847 17.0638 36.5938C17.2832 36.503 17.4708 36.349 17.6027 36.1516C17.7347 35.9541 17.8051 35.7219 17.8051 35.4844C17.8051 35.1659 17.6786 34.8605 17.4534 34.6353C17.2282 34.4101 16.9227 34.2835 16.6042 34.2835ZM19.4791 38.579C19.2416 38.579 19.0094 38.6494 18.8119 38.7814C18.6144 38.9133 18.4605 39.1009 18.3696 39.3203C18.2787 39.5397 18.255 39.7812 18.3013 40.0141C18.3476 40.2471 18.462 40.461 18.63 40.629C18.7979 40.7969 19.0119 40.9113 19.2448 40.9576C19.4778 41.004 19.7192 40.9802 19.9386 40.8893C20.1581 40.7984 20.3456 40.6445 20.4776 40.447C20.6095 40.2495 20.6799 40.0174 20.6799 39.7799C20.6799 39.4614 20.5534 39.1559 20.3282 38.9307C20.103 38.7055 19.7976 38.579 19.4791 38.579ZM23.7517 41.4202C23.5142 41.4202 23.282 41.4906 23.0846 41.6226C22.8871 41.7546 22.7332 41.9421 22.6423 42.1615C22.5514 42.381 22.5276 42.6224 22.5739 42.8553C22.6203 43.0883 22.7346 43.3023 22.9026 43.4702C23.0705 43.6381 23.2845 43.7525 23.5174 43.7989C23.7504 43.8452 23.9918 43.8214 24.2113 43.7305C24.4307 43.6396 24.6182 43.4857 24.7502 43.2882C24.8821 43.0908 24.9526 42.8586 24.9526 42.6211C24.9526 42.3026 24.8261 41.9971 24.6009 41.7719C24.3756 41.5467 24.0702 41.4202 23.7517 41.4202Z" fill="#AEB0B5"/>
</g>
<defs>
<clipPath id="clip0_2112_14">
<rect width="28.8205" height="28.8205" fill="white" transform="translate(14.4103 16.0114)"/>
</clipPath>
</defs>
</svg>
