<svg width="22" height="22" viewBox="0 0 22 22" fill="none" xmlns="http://www.w3.org/2000/svg">
<path d="M6.25933 6.25933C7.69106 4.82759 7.69106 2.50554 6.25933 1.0738C4.82759 -0.357934 2.50554 -0.357934 1.0738 1.0738C-0.357934 2.50554 -0.357934 4.82759 1.0738 6.25933C2.50611 7.69164 4.82759 7.69164 6.25933 6.25933ZM20.9262 15.7406C19.4944 14.3089 17.1724 14.3089 15.7406 15.7406C14.3089 17.1724 14.3089 19.4944 15.7406 20.9262C17.1724 22.3579 19.4944 22.3579 20.9262 20.9262C22.3585 19.4944 22.3585 17.1729 20.9262 15.7406ZM20.815 2.48147L19.5191 1.18552C18.8029 0.469368 17.6422 0.469368 16.9266 1.18552L1.18552 16.9266C0.469367 17.6427 0.469367 18.8035 1.18552 19.5191L2.48147 20.815C3.19763 21.5312 4.35837 21.5312 5.07395 20.815L20.815 5.07395C21.5312 4.35837 21.5312 3.19763 20.815 2.48147Z" fill="#AEB0B5"/>
</svg>
